# xmcd
#
# Track frame offsets:
# 150
# 17765
# 39812
# 61615
# 78030
# 97782
#
# Disc length: 1433 seconds
#
# Revision: 0
# Processed by: cddbd v1.5.1PL0 Copyright (c) Steve Scherf et al.
# Submitted via: Axialis_AX_CDPlayer 2.6
#
DISCID=2c059706
DTITLE=Brooklyn Cowboys - Other Man In Black (The Ballad Of Dale Earnhardt)
DYEAR=1900
DGENRE=
TTITLE0=The Other Man In Black (The Ballad Of Dale Earnhardt)
TTITLE1=Right Now
TTITLE2=You Must Be From Nashville
TTITLE3=Learn How To Love Me
TTITLE4=Reachin' For The Sky
TTITLE5=Bonus Track
EXTD=
EXTT0=
EXTT1=
EXTT2=
EXTT3=
EXTT4=
EXTT5=
PLAYORDER=
